{
	"asset":{
		"generator":"Khronos glTF Blender I/O v4.0.44",
		"version":"2.0"
	},
	"scene":0,
	"scenes":[
		{
			"name":"Scene",
			"nodes":[
				0,
				1,
				2
			]
		}
	],
	"nodes":[
		{
			"mesh":0,
			"name":"Text",
			"rotation":[
				0.5735765099525452,
				0,
				0,
				0.8191519975662231
			],
			"scale":[
				0.041347868740558624,
				0.041347868740558624,
				0.041347868740558624
			],
			"translation":[
				-0.008056849241256714,
				0.0673963874578476,
				0
			]
		},
		{
			"mesh":1,
			"name":"Hologram"
		},
		{
			"mesh":2,
			"name":"Source",
			"scale":[
				0.0009064982878044248,
				0.0009064982878044248,
				0.0009064982878044248
			]
		}
	],
	"materials":[
		{
			"alphaMode":"BLEND",
			"doubleSided":true,
			"emissiveFactor":[
				0.12536302208900452,
				0.4108271598815918,
				1
			],
			"name":"Beams",
			"pbrMetallicRoughness":{
				"baseColorFactor":[
					0,
					0,
					0,
					1
				]
			}
		}
	],
	"meshes":[
		{
			"name":"Text.001",
			"primitives":[
				{
					"attributes":{
						"POSITION":0,
						"NORMAL":1,
						"TEXCOORD_0":2
					},
					"indices":3
				}
			]
		},
		{
			"name":"Cube.001",
			"primitives":[
				{
					"attributes":{
						"POSITION":4,
						"NORMAL":5
					},
					"indices":6,
					"material":0
				}
			]
		},
		{
			"name":"Sphere",
			"primitives":[
				{
					"attributes":{
						"POSITION":7,
						"NORMAL":8,
						"TEXCOORD_0":9
					},
					"indices":10
				}
			]
		}
	],
	"accessors":[
		{
			"bufferView":0,
			"componentType":5126,
			"count":3822,
			"max":[
				2.43861722946167,
				0.03999999910593033,
				0.789884090423584
			],
			"min":[
				-1.8947168588638306,
				-0.03999999910593033,
				-1.0034493207931519
			],
			"type":"VEC3"
		},
		{
			"bufferView":1,
			"componentType":5126,
			"count":3822,
			"type":"VEC3"
		},
		{
			"bufferView":2,
			"componentType":5126,
			"count":3822,
			"type":"VEC2"
		},
		{
			"bufferView":3,
			"componentType":5123,
			"count":11220,
			"type":"SCALAR"
		},
		{
			"bufferView":4,
			"componentType":5126,
			"count":60264,
			"max":[
				0.09285563975572586,
				0.10703656077384949,
				0.012688863091170788
			],
			"min":[
				-0.08566641062498093,
				-8.046365110203624e-05,
				-0.01628122292459011
			],
			"type":"VEC3"
		},
		{
			"bufferView":5,
			"componentType":5126,
			"count":60264,
			"type":"VEC3"
		},
		{
			"bufferView":6,
			"componentType":5123,
			"count":180792,
			"type":"SCALAR"
		},
		{
			"bufferView":7,
			"componentType":5126,
			"count":1984,
			"max":[
				0.9999997019767761,
				1,
				0.9999993443489075
			],
			"min":[
				-0.9999990463256836,
				-1,
				-1
			],
			"type":"VEC3"
		},
		{
			"bufferView":8,
			"componentType":5126,
			"count":1984,
			"type":"VEC3"
		},
		{
			"bufferView":9,
			"componentType":5126,
			"count":1984,
			"type":"VEC2"
		},
		{
			"bufferView":10,
			"componentType":5123,
			"count":2880,
			"type":"SCALAR"
		}
	],
	"bufferViews":[
		{
			"buffer":0,
			"byteLength":45864,
			"byteOffset":0,
			"target":34962
		},
		{
			"buffer":0,
			"byteLength":45864,
			"byteOffset":45864,
			"target":34962
		},
		{
			"buffer":0,
			"byteLength":30576,
			"byteOffset":91728,
			"target":34962
		},
		{
			"buffer":0,
			"byteLength":22440,
			"byteOffset":122304,
			"target":34963
		},
		{
			"buffer":0,
			"byteLength":723168,
			"byteOffset":144744,
			"target":34962
		},
		{
			"buffer":0,
			"byteLength":723168,
			"byteOffset":867912,
			"target":34962
		},
		{
			"buffer":0,
			"byteLength":361584,
			"byteOffset":1591080,
			"target":34963
		},
		{
			"buffer":0,
			"byteLength":23808,
			"byteOffset":1952664,
			"target":34962
		},
		{
			"buffer":0,
			"byteLength":23808,
			"byteOffset":1976472,
			"target":34962
		},
		{
			"buffer":0,
			"byteLength":15872,
			"byteOffset":2000280,
			"target":34962
		},
		{
			"buffer":0,
			"byteLength":5760,
			"byteOffset":2016152,
			"target":34963
		}
	],
	"buffers":[
		{
			"byteLength":2021912,
			"uri":"holo_portfolio.bin"
		}
	]
}
