<?xml version="1.0" encoding="UTF-8" standalone="no"?>
<!-- Created with Inkscape (http://www.inkscape.org/) -->

<svg
   width="710"
   height="710"
   viewBox="0 0 187.85417 187.85417"
   version="1.1"
   id="svg5"
   inkscape:version="1.2.2 (732a01da63, 2022-12-09)"
   sodipodi:docname="AvalancheLogo.svg"
   xmlns:inkscape="http://www.inkscape.org/namespaces/inkscape"
   xmlns:sodipodi="http://sodipodi.sourceforge.net/DTD/sodipodi-0.dtd"
   xmlns="http://www.w3.org/2000/svg"
   xmlns:svg="http://www.w3.org/2000/svg">
  <sodipodi:namedview
     id="namedview7"
     pagecolor="#505050"
     bordercolor="#eeeeee"
     borderopacity="1"
     inkscape:showpageshadow="0"
     inkscape:pageopacity="0"
     inkscape:pagecheckerboard="0"
     inkscape:deskcolor="#505050"
     inkscape:document-units="mm"
     showgrid="false"
     showguides="true"
     inkscape:zoom="1"
     inkscape:cx="350"
     inkscape:cy="381"
     inkscape:window-width="1920"
     inkscape:window-height="1166"
     inkscape:window-x="-11"
     inkscape:window-y="-11"
     inkscape:window-maximized="1"
     inkscape:current-layer="layer1" />
  <defs
     id="defs2">
    <rect
       x="342.26382"
       y="210.72891"
       width="53.706287"
       height="46.42408"
       id="rect281" />
    <rect
       x="606.69904"
       y="461.05484"
       width="41.8727"
       height="31.859663"
       id="rect275" />
  </defs>
  <g
     inkscape:label="Layer 1"
     inkscape:groupmode="layer"
     id="layer1">
    <rect
       style="fill:#4d5b6a;fill-opacity:1;stroke-width:3.90347"
       id="rect1092"
       width="231.58553"
       height="235.31889"
       x="-20.608047"
       y="-17.846079" />
    <text
       xml:space="preserve"
       transform="scale(0.26458333)"
       id="text273"
       style="white-space:pre;shape-inside:url(#rect275);display:inline;fill:#000000" />
    <g
       id="g2033"
       transform="matrix(1.3989699,0,0,1.3989699,3.4576566,-4.359821)">
      <g
         id="g5069"
         transform="matrix(8.8481183,0,0,8.8481183,13.448422,13.164388)">
        <path
           style="fill:#ffffff;stroke-width:0.264583"
           d="m 4.1217971,6.0686886 -2.8412551,5.8282594 5.6285968,0.0083 z"
           id="path1055" />
        <g
           id="g435"
           transform="matrix(0.22365911,0,0,0.23200321,-8.2653472,-10.531155)">
          <g
             id="g648">
            <path
               id="text357"
               style="font-style:normal;font-variant:normal;font-weight:bold;font-stretch:normal;font-size:62.5184px;font-family:sans-serif;-inkscape-font-specification:'sans-serif Bold';fill:#000000;stroke-width:5.20986"
               transform="scale(0.93169094,1.0733173)"
               d="m 67.725146,45.930356 -2.38214,4.120721 -18.468417,31.106462 c -2.381034,4.02943 -3.776008,6.41024 -4.183029,7.142858 -0.386651,0.712286 -0.578768,1.200904 -0.578768,1.465468 0,0.107519 0.0206,0.195729 0.04471,0.2819 0.0019,-1.16e-4 0.0032,-7e-6 0.005,0 0.01815,6.4e-5 0.03664,0.0038 0.05465,0.0062 0.01505,0.0021 0.0295,0.0029 0.04471,0.0041 0.01166,0.0016 0.023,0.0032 0.03478,0.0041 0.01262,8.98e-4 0.0246,0.0019 0.03726,0.0021 0.01537,2.25e-4 0.02665,0.0047 0.03229,0.01036 l 0.0025,-0.0021 c 0.0027,-3.17e-4 0.0044,1.2e-5 0.0075,0 0.0091,0 0.0182,0.0012 0.02732,0.0021 0.0061,-0.0039 0.01503,-0.0062 0.02732,-0.0062 h 0.01739 c 0.0044,-0.0063 0.01217,-0.01238 0.02732,-0.01451 0.02021,-0.0027 0.03919,-0.0028 0.05962,-0.0041 0.01892,-6.06e-4 0.03834,1.6e-4 0.05713,0.0021 0.01755,0.002 0.03463,0.0041 0.05216,0.0062 0.01921,0.002 0.04021,0.0041 0.05962,0.0041 0.02139,-0.0012 0.04079,-0.0043 0.0621,-0.0062 0.02287,-0.0022 0.04663,-0.0026 0.06955,-0.0041 0.01729,-0.0016 0.03342,-0.0076 0.04968,-0.01244 0.01957,-0.0053 0.03916,-0.0088 0.05962,-0.01036 0.0029,-2.25e-4 0.007,1.64e-4 0.0099,0 0.01976,-4.01e-4 0.0377,0.0037 0.05713,0.0062 0.01686,0.0016 0.03332,0.0046 0.04968,0.0083 0.01844,0.0052 0.03829,0.01059 0.05713,0.01451 0.01002,0.0021 0.01967,0.0026 0.02981,0.0041 0.0091,0.0014 0.01722,0.0051 0.02236,0.0083 0.0016,-2.04e-4 0.0034,1.46e-4 0.005,0 0.0049,-4.47e-4 0.0098,-0.0012 0.0149,-0.0021 h 0.0025 c 0.0049,-6.86e-4 0.01013,-0.0016 0.0149,-0.0021 0.0024,-2.06e-4 0.0049,-7.9e-5 0.0075,0 0.0034,1.06e-4 0.0068,2e-4 0.0099,0 h 0.0025 c 0.0083,-7.91e-4 0.01668,-0.0018 0.02484,-0.0021 0.0023,-7.6e-5 0.0026,6.5e-5 0.005,0 0.01811,-4.21e-4 0.03653,9.3e-5 0.05465,0 0.0092,-5.2e-5 0.01644,0.0016 0.02236,0.0041 0.01078,-1.65e-4 0.02127,1.17e-4 0.03229,0 0.01265,-2.09e-4 0.02717,-0.0012 0.03974,0 0.01326,0.0011 0.02651,0.0029 0.03974,0.0041 0.01404,0.0014 0.02811,0.0036 0.04223,0.0041 0.01384,4.53e-4 0.02589,-9.2e-5 0.03974,0 0.0016,1e-5 0.0033,-5e-6 0.005,0 7.39e-4,-9.94e-4 0.0015,-0.0032 0.0025,-0.0041 0.0062,-0.0048 0.01834,-0.0115 0.02981,-0.01244 0.01822,-0.0015 0.03635,-0.0015 0.05465,-0.0021 0.0019,-5.2e-5 0.0031,-0.002 0.005,-0.0021 0.01338,-3.41e-4 0.02636,1.45e-4 0.03974,0 0.0077,-8.8e-5 0.01445,1.21e-4 0.01987,0.0021 0.0036,0.0017 0.01023,0.0062 0.01242,0.0083 0.0012,0.0018 0.0018,0.0037 0.0025,0.0062 0.01004,1e-5 0.02013,-1.85e-4 0.02981,0 0.01391,3.08e-4 0.02832,-1.13e-4 0.04223,0 0.01371,9.7e-5 0.02618,-7e-6 0.03974,0 0.0015,-0.0084 0.0099,-0.01725 0.02981,-0.02073 0.0159,-0.0027 0.03096,-0.0038 0.0472,-0.0041 0.0129,2.8e-5 0.02685,-2.33e-4 0.03974,0 0.01369,2.21e-4 0.02606,-5.6e-5 0.03974,0 0.0156,6.8e-5 0.03163,0.0012 0.0472,0.0021 0.01553,8.98e-4 0.03164,0.0019 0.0472,0.0021 0.0155,1.96e-4 0.0317,-4.9e-5 0.0472,0 0.01115,-6.67e-4 0.02132,-0.0015 0.03229,-0.0021 0.249261,-0.32307 0.605828,-0.905462 1.115308,-1.871736 l 2.014511,-3.722743 1.525166,0.02902 9.036732,0.03109 h 10.256368 l 2.901293,5.586188 h 21.153603 z m -9.493785,19.994199 8.728718,16.453862 -9.188255,0.0912 -9.155963,-0.122295 4.272452,-7.416468 z M 42.768564,90.279918 c 0.0079,0.0017 0.01675,0.0028 0.02484,0.0041 h 0.0025 c 0.0119,-0.0013 0.02311,-0.0032 0.03478,-0.0041 -0.02061,-0.002 -0.0414,9.5e-5 -0.0621,0 z m 0.861942,0.122295 c -0.0043,2.92e-4 -0.0086,0.0015 -0.01242,0.0021 8.4e-4,0.0037 0.0022,0.0085 0.0025,0.01244 0.0097,-0.005 0.01998,-0.0098 0.02981,-0.01451 -0.0027,2.33e-4 -0.0048,-2.64e-4 -0.0075,0 -0.0039,3.83e-4 -0.0081,-2.91e-4 -0.01242,0 z m -0.914106,0.08706 c -0.0073,0.0027 -0.01499,0.0057 -0.02236,0.0083 0.0052,3.17e-4 0.0097,0.0018 0.0149,0.0021 0.0023,-0.0035 0.0053,-0.0072 0.0075,-0.01036 z" />
            <path
               style="fill:#f9f9f9;stroke-width:0.499924"
               d="m 63.117433,49.273689 c 27.893594,47.456926 27.789286,47.409165 27.789286,47.409165 l -16.188206,-0.0017 z"
               id="path363"
               sodipodi:nodetypes="cccc" />
          </g>
        </g>
        <path
           style="fill:#000000;stroke-width:0.266734"
           d="m 0.4371826,11.900048 c 1.0676351,-10e-4 1.0066747,-0.0036 1.0066747,-0.0036 L 0.89606934,11.6427 Z"
           id="path947"
           sodipodi:nodetypes="cccc" />
        <path
           style="fill:#000000;stroke-width:0.264583"
           d="m 2.5362793,9.5911457 c 3.1377928,0.0062 3.1357258,0.00827 3.1357258,0.00827 l 0.2232422,0.4650883 -3.6524902,-0.01033 z"
           id="path949" />
        <path
           style="fill:#000000;stroke-width:0.264609"
           d="M 0.43924965,11.896948 1.441121,11.895915 4.413572,5.8572814 5.850304,0.90466178 Z"
           id="path1053"
           sodipodi:nodetypes="ccccc" />
        <path
           style="fill:#ffffff;stroke-width:0.23302"
           d="M 2.1369034,11.897407 5.276771,6.3531006 6.5777308,11.911802 Z"
           id="path1114"
           sodipodi:nodetypes="cccc"
           inkscape:label="path1114" />
        <path
           style="fill:#000000;stroke-width:0.264583"
           d="m 3.0489093,9.5932126 3.3279622,0.0062 0.1426271,0.9053714 -4.078304,0.0021 z"
           id="path1122"
           inkscape:label="path1122" />
        <path
           style="fill:#000000;stroke-width:0.264583"
           d="M 4.3337337,6.6314163 2.1325185,11.89767 1.3827022,11.896208 4.0282529,6.2908563 Z"
           id="path284"
           inkscape:label="path284" />
        <path
           style="fill:#000000;stroke-width:0.264583"
           d="M 2.1332031,11.895914 4.6626004,7.4353128 4.2635754,6.6401859 2.5724692,9.8616189 Z"
           id="path359"
           inkscape:label="path359" />
      </g>
      <path
         style="fill:#000000;fill-opacity:1;stroke-width:0.264583"
         d="M 32.296182,118.40374 9.1205726,118.49729 65.219791,21.137728 Z"
         id="path968" />
    </g>
  </g>
</svg>
