<svg xmlns="http://www.w3.org/2000/svg" xmlns:xlink="http://www.w3.org/1999/xlink" width="500" zoomAndPan="magnify" viewBox="0 0 375 374.999991" height="500" preserveAspectRatio="xMidYMid meet" version="1.0"><defs><g/></defs><rect x="-37.5" width="450" fill="#ffffff" y="-37.499999" height="449.999989" fill-opacity="1"/><rect x="-37.5" width="450" fill="#fad02c" y="-37.499999" height="449.999989" fill-opacity="1"/><path stroke-linecap="butt" transform="matrix(0, -0.75, 0.75, 0, 182.620262, 290.730449)" fill="none" stroke-linejoin="miter" d="M -0.0000264551 6.501109 L 275.291658 6.501109 " stroke="#000000" stroke-width="13" stroke-opacity="1" stroke-miterlimit="4"/><g fill="#000000" fill-opacity="1"><g transform="translate(35.617413, 271.369202)"><g><path d="M 61.574219 -169.023438 L 32.597656 -169.023438 L 32.597656 0 L 61.574219 0 C 77.265625 0 85.71875 -8.449219 85.71875 -24.144531 L 85.71875 -144.875 C 85.71875 -160.570312 77.265625 -169.023438 61.574219 -169.023438 Z M 49.5 -14.96875 L 49.5 -154.050781 L 59.15625 -154.050781 C 65.4375 -154.050781 68.816406 -150.671875 68.816406 -144.394531 L 68.816406 -24.628906 C 68.816406 -18.351562 65.4375 -14.96875 59.15625 -14.96875 Z M 49.5 -14.96875 "/></g></g></g><g fill="#000000" fill-opacity="1"><g transform="translate(223.474066, 271.369202)"><g><path d="M 61.574219 -169.023438 L 32.597656 -169.023438 L 32.597656 0 L 49.5 0 L 49.5 -81.128906 L 59.15625 -81.128906 C 65.4375 -81.128906 68.816406 -77.75 68.816406 -71.472656 L 68.816406 -6.761719 C 68.816406 -2.414062 71.230469 0 75.578125 0 L 85.71875 0 L 85.71875 -71.957031 C 85.71875 -78.957031 83.0625 -84.511719 78.234375 -88.617188 C 83.0625 -92.722656 85.71875 -98.273438 85.71875 -105.277344 L 85.71875 -144.875 C 85.71875 -160.570312 77.265625 -169.023438 61.574219 -169.023438 Z M 49.5 -96.101562 L 49.5 -154.050781 L 59.15625 -154.050781 C 65.4375 -154.050781 68.816406 -150.671875 68.816406 -144.394531 L 68.816406 -105.757812 C 68.816406 -99.480469 65.4375 -96.101562 59.15625 -96.101562 Z M 49.5 -96.101562 "/></g></g></g></svg>